<?xml version="1.0" encoding="UTF-8"?>
<svg width="1200pt" height="1200pt" version="1.1" viewBox="0 0 1200 1200" xmlns="http://www.w3.org/2000/svg">
 <g>
  <path d="m1098 544.8c-2.3984-8.3984-6-16.801-8.3984-24-7.1992-18-18-34.801-31.199-52.801 9.6016-22.801 21.602-44.398 34.801-68.398 32.398-56.398 68.398-118.8 57.602-198-6-43.199-32.398-103.2-78-136.8-28.801-21.602-62.398-30-96-24-14.398 2.3984-27.602 8.3984-42 15.602-14.398 8.3984-28.801 18-44.398 30-39.602 27.602-84 60-148.8 70.801-45.602 7.1992-93.602 10.801-145.2 12-48 0-91.199-3.6016-133.2-9.6016-67.199-10.801-110.4-43.199-150-70.801-16.801-12-31.199-22.801-46.801-31.199-12-7.1992-25.199-12-39.602-14.398-33.602-4.8008-67.199 3.6016-96 24-45.602 33.602-72 93.602-78 136.8-10.801 78 25.199 141.6 57.602 198 13.199 22.801 25.199 45.602 34.801 68.398-13.199 18-25.199 34.801-31.199 52.801-3.6016 8.3984-6 15.602-8.3984 24v1.1992c-12 43.199-46.801 195.6 31.199 319.2 46.801 74.398 123.6 123.6 229.2 148.8 25.199 92.398 121.2 162 236.4 162s212.4-69.602 236.4-162c106.8-24 184.8-74.398 230.4-148.8 75.598-126 41.996-277.2 28.797-322.8zm-115.2-456c20.398-3.6016 40.801 2.3984 60 15.602 34.801 25.199 55.199 72 60 105.6 8.3984 62.398-20.398 112.8-51.602 166.8-9.6016 16.801-58.801 20.398-74.398 4.8008-36-34.801-73.199-72-80.398-94.801-20.398-56.398-25.199-135.6 62.398-188.4 8.3984-4.8047 16.801-8.4062 24-9.6055zm-832.8 288c-31.199-54-60-105.6-51.602-166.8 4.8008-32.398 25.199-79.199 60-105.6 18-13.199 38.398-19.199 60-15.602 7.1992 1.1992 14.398 3.6016 22.801 8.3984 94.801 57.602 81.602 144 64.801 189.6-8.3984 22.801-45.602 58.801-80.398 94.801-16.801 15.602-66 12.004-75.602-4.7969zm877.2 463.2c-39.602 62.398-106.8 105.6-200.4 127.2h-31.199c0 88.801-87.602 160.8-195.6 160.8s-195.6-72-195.6-160.8h-30c-93.602-21.602-160.8-64.801-200.4-127.2-67.199-106.8-36-241.2-25.199-280.8 2.3984-7.1992 4.8008-14.398 7.1992-21.602 14.398-37.199 61.199-82.801 102-123.6 43.199-43.199 84-78 92.398-112.8 20.398-87.602 480-81.602 498 0 8.3984 34.801 49.199 70.801 92.398 112.8 40.801 40.801 87.602 86.398 102 123.6 2.3984 7.1992 4.8008 14.398 7.1992 21.602 13.203 39.602 43.203 174-22.797 280.8z"/>
  <path d="m600 852c-52.801 0-108 30-108 84s54 108 108 108 108-54 108-108c0-55.199-55.199-84-108-84z"/>
  <path d="m340.8 469.2c-99.602 0-171.6 99.602-183.6 194.4l48 6c9.6016-73.199 64.801-153.6 136.8-153.6h1.1992c-57.602 18-98.398 72-98.398 134.4 0 78 62.398 141.6 139.2 141.6 28.801 0 56.398-9.6016 79.199-25.199-9.6016 30-22.801 57.602-33.602 72l38.398 28.801c31.199-40.801 58.801-127.2 58.801-181.2-2.3984-178.8-103.2-217.2-186-217.2zm72 112.8c20.398 0 38.398 18 38.398 38.398 0 20.398-16.801 38.398-38.398 38.398-20.398 0-38.398-18-38.398-38.398-0.003906-20.398 17.996-38.398 38.398-38.398zm-31.199 163.2c-50.398 0-91.199-42-91.199-93.602 0-38.398 36-51.602 36-31.199 0 48 38.398 86.398 86.398 86.398 20.398 1.2031 6 38.402-31.199 38.402z"/>
  <path d="m860.4 469.2c-84 0-183.6 38.398-183.6 219.6 0 54 28.801 141.6 58.801 181.2l38.398-28.801c-12-15.602-24-43.199-33.602-72 22.801 15.602 49.199 25.199 79.199 25.199 76.801 0 139.2-63.602 139.2-141.6 0-63.602-42-117.6-98.398-134.4h1.1992c72 0 127.2 79.199 136.8 153.6l48-6c-14.395-98.398-87.594-196.8-186-196.8zm-34.797 151.2c0 21.602-16.801 38.398-38.398 38.398-21.602 0-38.398-18-38.398-38.398 0-20.398 16.801-38.398 38.398-38.398s38.398 16.801 38.398 38.398zm84 31.203c0 51.602-40.801 93.602-91.199 93.602-37.199 0-50.398-37.199-31.199-37.199 46.801 0 86.398-38.398 86.398-86.398 0-21.605 36-7.207 36 29.996z"/>
  <path d="m600 340.8c69.602 0 133.2 43.199 157.2 108l44.398-16.801c-32.398-82.801-114-139.2-202.8-139.2-87.602 0-165.6 51.602-200.4 133.2l44.398 19.199c27.602-63.598 88.805-104.4 157.2-104.4z"/>
 </g>
</svg>
