<svg width="36" height="41" viewBox="0 0 36 41" fill="none" xmlns="http://www.w3.org/2000/svg">
<path d="M30.8497 10.2823C33.4641 10.2823 35.5835 8.16297 35.5835 5.54859C35.5835 2.9342 33.4641 0.814819 30.8497 0.814819C28.2353 0.814819 26.116 2.9342 26.116 5.54859C26.116 8.16297 28.2353 10.2823 30.8497 10.2823Z" fill="#FF9C06"/>
<path d="M3.87195 13.7459C5.35436 13.1979 6.92623 12.9323 8.50636 12.9628H13.281V10.2861H24.7999C23.7436 8.95671 23.1686 7.30877 23.1686 5.61081C23.1686 3.91284 23.7436 2.26491 24.7999 0.935481H11.6155C9.98071 0.85912 8.3583 1.25256 6.94013 2.06925C5.00571 3.30237 3.85441 5.67509 3.88363 9.80106V10.2861L3.87195 13.7459Z" fill="white"/>
<path d="M32.4624 30.8562H10.1787V25.2459H24.6722C25.7891 25.2653 26.9019 25.1054 27.9683 24.7725C28.5653 24.5715 29.1288 24.2819 29.6397 23.9134C31.4689 22.5809 32.5209 20.103 32.404 15.8894H8.50723C6.87243 15.8123 5.24984 16.2058 3.83191 17.0231C1.82736 18.303 0.65853 20.8101 0.781257 25.2049V40.166H24.7423C25.8594 40.1884 26.9727 40.0285 28.0384 39.6926C28.6362 39.4961 29.2 39.2083 29.7098 38.8394C31.5274 37.542 32.6085 35.064 32.4624 30.8562Z" fill="white"/>
</svg>
