<svg width="1196" height="447" viewBox="0 0 1196 447" fill="none" xmlns="http://www.w3.org/2000/svg">
<path d="M32.8759 383.4C38.1026 383.4 41.9693 384.547 44.4759 386.84C46.9826 389.133 48.2359 392.787 48.2359 397.8V427H43.1159L41.7559 420.92H41.4359C40.2093 422.467 38.9293 423.773 37.5959 424.84C36.3159 425.853 34.8226 426.6 33.1159 427.08C31.4626 427.56 29.4359 427.8 27.0359 427.8C24.4759 427.8 22.1559 427.347 20.0759 426.44C18.0493 425.533 16.4493 424.147 15.2759 422.28C14.1026 420.36 13.5159 417.96 13.5159 415.08C13.5159 410.813 15.1959 407.533 18.5559 405.24C21.9159 402.893 27.0893 401.613 34.0759 401.4L41.3559 401.16V398.6C41.3559 395.027 40.5826 392.547 39.0359 391.16C37.4893 389.773 35.3026 389.08 32.4759 389.08C30.2359 389.08 28.1026 389.427 26.0759 390.12C24.0493 390.76 22.1559 391.507 20.3959 392.36L18.2359 387.08C20.1026 386.067 22.3159 385.213 24.8759 384.52C27.4359 383.773 30.1026 383.4 32.8759 383.4ZM34.9559 406.28C29.6226 406.493 25.9159 407.347 23.8359 408.84C21.8093 410.333 20.7959 412.44 20.7959 415.16C20.7959 417.56 21.5159 419.32 22.9559 420.44C24.4493 421.56 26.3426 422.12 28.6359 422.12C32.2626 422.12 35.2759 421.133 37.6759 419.16C40.0759 417.133 41.2759 414.04 41.2759 409.88V406.04L34.9559 406.28ZM96.5809 422.04C97.6476 422.04 98.7409 421.96 99.8609 421.8C100.981 421.587 101.888 421.373 102.581 421.16V426.52C101.834 426.893 100.768 427.187 99.3809 427.4C97.9943 427.667 96.6609 427.8 95.3809 427.8C93.1409 427.8 91.0609 427.427 89.1409 426.68C87.2743 425.88 85.7543 424.52 84.5809 422.6C83.4076 420.68 82.8209 417.987 82.8209 414.52V389.56H76.7409V386.2L82.9009 383.4L85.7009 374.28H89.8609V384.12H102.261V389.56H89.8609V414.36C89.8609 416.973 90.4743 418.92 91.7009 420.2C92.9809 421.427 94.6076 422.04 96.5809 422.04ZM131.167 383.32C131.967 383.32 132.821 383.373 133.727 383.48C134.687 383.533 135.514 383.64 136.207 383.8L135.327 390.28C134.634 390.12 133.861 389.987 133.007 389.88C132.207 389.773 131.434 389.72 130.687 389.72C129.034 389.72 127.461 390.067 125.967 390.76C124.474 391.453 123.141 392.44 121.967 393.72C120.794 394.947 119.861 396.44 119.167 398.2C118.527 399.96 118.207 401.933 118.207 404.12V427H111.167V384.12H116.927L117.727 391.96H118.047C118.954 390.36 120.047 388.92 121.327 387.64C122.607 386.307 124.074 385.267 125.727 384.52C127.381 383.72 129.194 383.32 131.167 383.32ZM159.212 383.32C162.892 383.32 166.038 384.12 168.652 385.72C171.318 387.32 173.345 389.587 174.732 392.52C176.172 395.4 176.892 398.787 176.892 402.68V406.92H147.532C147.638 411.773 148.865 415.48 151.212 418.04C153.612 420.547 156.945 421.8 161.212 421.8C163.932 421.8 166.332 421.56 168.412 421.08C170.545 420.547 172.732 419.8 174.972 418.84V425C172.785 425.96 170.625 426.653 168.492 427.08C166.358 427.56 163.825 427.8 160.892 427.8C156.838 427.8 153.238 426.973 150.092 425.32C146.998 423.667 144.572 421.213 142.812 417.96C141.105 414.653 140.252 410.627 140.252 405.88C140.252 401.187 141.025 397.16 142.572 393.8C144.172 390.44 146.385 387.853 149.212 386.04C152.092 384.227 155.425 383.32 159.212 383.32ZM159.132 389.08C155.772 389.08 153.105 390.173 151.132 392.36C149.212 394.493 148.065 397.48 147.692 401.32H169.532C169.532 398.867 169.158 396.733 168.412 394.92C167.665 393.107 166.518 391.693 164.972 390.68C163.478 389.613 161.532 389.08 159.132 389.08ZM204.368 383.32C208.048 383.32 211.194 384.12 213.808 385.72C216.474 387.32 218.501 389.587 219.888 392.52C221.328 395.4 222.048 398.787 222.048 402.68V406.92H192.688C192.794 411.773 194.021 415.48 196.368 418.04C198.768 420.547 202.101 421.8 206.368 421.8C209.088 421.8 211.488 421.56 213.568 421.08C215.701 420.547 217.888 419.8 220.128 418.84V425C217.941 425.96 215.781 426.653 213.648 427.08C211.514 427.56 208.981 427.8 206.048 427.8C201.994 427.8 198.394 426.973 195.248 425.32C192.154 423.667 189.728 421.213 187.968 417.96C186.261 414.653 185.408 410.627 185.408 405.88C185.408 401.187 186.181 397.16 187.728 393.8C189.328 390.44 191.541 387.853 194.368 386.04C197.248 384.227 200.581 383.32 204.368 383.32ZM204.288 389.08C200.928 389.08 198.261 390.173 196.288 392.36C194.368 394.493 193.221 397.48 192.848 401.32H214.688C214.688 398.867 214.314 396.733 213.568 394.92C212.821 393.107 211.674 391.693 210.128 390.68C208.634 389.613 206.688 389.08 204.288 389.08ZM260.785 384.12V427H253.745V384.12H260.785ZM257.345 368.04C258.412 368.04 259.345 368.413 260.145 369.16C260.999 369.853 261.425 370.973 261.425 372.52C261.425 374.013 260.999 375.133 260.145 375.88C259.345 376.627 258.412 377 257.345 377C256.172 377 255.185 376.627 254.385 375.88C253.585 375.133 253.185 374.013 253.185 372.52C253.185 370.973 253.585 369.853 254.385 369.16C255.185 368.413 256.172 368.04 257.345 368.04ZM295.01 383.32C300.13 383.32 303.997 384.573 306.61 387.08C309.224 389.533 310.53 393.533 310.53 399.08V427H303.57V399.56C303.57 396.093 302.797 393.507 301.25 391.8C299.704 390.093 297.277 389.24 293.97 389.24C289.224 389.24 285.944 390.573 284.13 393.24C282.317 395.907 281.41 399.747 281.41 404.76V427H274.37V384.12H280.05L281.09 389.96H281.49C282.45 388.467 283.624 387.24 285.01 386.28C286.45 385.267 288.024 384.52 289.73 384.04C291.437 383.56 293.197 383.32 295.01 383.32ZM338.143 422.04C339.21 422.04 340.303 421.96 341.423 421.8C342.543 421.587 343.45 421.373 344.143 421.16V426.52C343.397 426.893 342.33 427.187 340.943 427.4C339.557 427.667 338.223 427.8 336.943 427.8C334.703 427.8 332.623 427.427 330.703 426.68C328.837 425.88 327.317 424.52 326.143 422.6C324.97 420.68 324.383 417.987 324.383 414.52V389.56H318.303V386.2L324.463 383.4L327.263 374.28H331.423V384.12H343.823V389.56H331.423V414.36C331.423 416.973 332.037 418.92 333.263 420.2C334.543 421.427 336.17 422.04 338.143 422.04ZM369.29 383.32C372.97 383.32 376.116 384.12 378.73 385.72C381.396 387.32 383.423 389.587 384.81 392.52C386.25 395.4 386.97 398.787 386.97 402.68V406.92H357.61C357.716 411.773 358.943 415.48 361.29 418.04C363.69 420.547 367.023 421.8 371.29 421.8C374.01 421.8 376.41 421.56 378.49 421.08C380.623 420.547 382.81 419.8 385.05 418.84V425C382.863 425.96 380.703 426.653 378.57 427.08C376.436 427.56 373.903 427.8 370.97 427.8C366.916 427.8 363.316 426.973 360.17 425.32C357.076 423.667 354.65 421.213 352.89 417.96C351.183 414.653 350.33 410.627 350.33 405.88C350.33 401.187 351.103 397.16 352.65 393.8C354.25 390.44 356.463 387.853 359.29 386.04C362.17 384.227 365.503 383.32 369.29 383.32ZM369.21 389.08C365.85 389.08 363.183 390.173 361.21 392.36C359.29 394.493 358.143 397.48 357.77 401.32H379.61C379.61 398.867 379.236 396.733 378.49 394.92C377.743 393.107 376.596 391.693 375.05 390.68C373.556 389.613 371.61 389.08 369.21 389.08ZM417.886 383.32C418.686 383.32 419.539 383.373 420.446 383.48C421.406 383.533 422.233 383.64 422.926 383.8L422.046 390.28C421.353 390.12 420.579 389.987 419.726 389.88C418.926 389.773 418.153 389.72 417.406 389.72C415.753 389.72 414.179 390.067 412.686 390.76C411.193 391.453 409.859 392.44 408.686 393.72C407.513 394.947 406.579 396.44 405.886 398.2C405.246 399.96 404.926 401.933 404.926 404.12V427H397.886V384.12H403.646L404.446 391.96H404.766C405.673 390.36 406.766 388.92 408.046 387.64C409.326 386.307 410.793 385.267 412.446 384.52C414.099 383.72 415.913 383.32 417.886 383.32ZM451.333 383.32C456.613 383.32 460.853 385.16 464.053 388.84C467.306 392.52 468.933 398.067 468.933 405.48C468.933 410.333 468.186 414.44 466.693 417.8C465.253 421.107 463.199 423.613 460.533 425.32C457.919 426.973 454.826 427.8 451.253 427.8C449.066 427.8 447.119 427.507 445.413 426.92C443.706 426.333 442.239 425.587 441.013 424.68C439.839 423.72 438.826 422.68 437.973 421.56H437.493C437.599 422.467 437.706 423.613 437.813 425C437.919 426.387 437.973 427.587 437.973 428.6V446.2H430.933V384.12H436.693L437.653 389.96H437.973C438.826 388.733 439.839 387.613 441.013 386.6C442.239 385.587 443.679 384.787 445.333 384.2C447.039 383.613 449.039 383.32 451.333 383.32ZM450.053 389.24C447.173 389.24 444.853 389.8 443.093 390.92C441.333 391.987 440.053 393.613 439.253 395.8C438.453 397.987 438.026 400.76 437.973 404.12V405.48C437.973 409 438.346 411.987 439.093 414.44C439.839 416.893 441.093 418.76 442.853 420.04C444.666 421.32 447.119 421.96 450.213 421.96C452.826 421.96 454.959 421.24 456.613 419.8C458.319 418.36 459.573 416.413 460.373 413.96C461.226 411.453 461.653 408.6 461.653 405.4C461.653 400.493 460.693 396.573 458.773 393.64C456.906 390.707 453.999 389.24 450.053 389.24ZM500.152 383.32C500.952 383.32 501.805 383.373 502.712 383.48C503.672 383.533 504.498 383.64 505.192 383.8L504.312 390.28C503.618 390.12 502.845 389.987 501.992 389.88C501.192 389.773 500.418 389.72 499.672 389.72C498.018 389.72 496.445 390.067 494.952 390.76C493.458 391.453 492.125 392.44 490.952 393.72C489.778 394.947 488.845 396.44 488.152 398.2C487.512 399.96 487.192 401.933 487.192 404.12V427H480.152V384.12H485.912L486.712 391.96H487.032C487.938 390.36 489.032 388.92 490.312 387.64C491.592 386.307 493.058 385.267 494.712 384.52C496.365 383.72 498.178 383.32 500.152 383.32ZM528.196 383.32C531.876 383.32 535.023 384.12 537.636 385.72C540.303 387.32 542.329 389.587 543.716 392.52C545.156 395.4 545.876 398.787 545.876 402.68V406.92H516.516C516.623 411.773 517.849 415.48 520.196 418.04C522.596 420.547 525.929 421.8 530.196 421.8C532.916 421.8 535.316 421.56 537.396 421.08C539.529 420.547 541.716 419.8 543.956 418.84V425C541.769 425.96 539.609 426.653 537.476 427.08C535.343 427.56 532.809 427.8 529.876 427.8C525.823 427.8 522.223 426.973 519.076 425.32C515.983 423.667 513.556 421.213 511.796 417.96C510.089 414.653 509.236 410.627 509.236 405.88C509.236 401.187 510.009 397.16 511.556 393.8C513.156 390.44 515.369 387.853 518.196 386.04C521.076 384.227 524.409 383.32 528.196 383.32ZM528.116 389.08C524.756 389.08 522.089 390.173 520.116 392.36C518.196 394.493 517.049 397.48 516.676 401.32H538.516C538.516 398.867 538.143 396.733 537.396 394.92C536.649 393.107 535.503 391.693 533.956 390.68C532.463 389.613 530.516 389.08 528.116 389.08ZM571.112 422.04C572.179 422.04 573.272 421.96 574.392 421.8C575.512 421.587 576.419 421.373 577.112 421.16V426.52C576.366 426.893 575.299 427.187 573.912 427.4C572.526 427.667 571.192 427.8 569.912 427.8C567.672 427.8 565.592 427.427 563.672 426.68C561.806 425.88 560.286 424.52 559.112 422.6C557.939 420.68 557.352 417.987 557.352 414.52V389.56H551.272V386.2L557.432 383.4L560.232 374.28H564.392V384.12H576.792V389.56H564.392V414.36C564.392 416.973 565.006 418.92 566.232 420.2C567.512 421.427 569.139 422.04 571.112 422.04ZM602.258 383.32C605.938 383.32 609.085 384.12 611.698 385.72C614.365 387.32 616.392 389.587 617.778 392.52C619.218 395.4 619.938 398.787 619.938 402.68V406.92H590.578C590.685 411.773 591.912 415.48 594.258 418.04C596.658 420.547 599.992 421.8 604.258 421.8C606.978 421.8 609.378 421.56 611.458 421.08C613.592 420.547 615.778 419.8 618.018 418.84V425C615.832 425.96 613.672 426.653 611.538 427.08C609.405 427.56 606.872 427.8 603.938 427.8C599.885 427.8 596.285 426.973 593.138 425.32C590.045 423.667 587.618 421.213 585.858 417.96C584.152 414.653 583.298 410.627 583.298 405.88C583.298 401.187 584.072 397.16 585.618 393.8C587.218 390.44 589.432 387.853 592.258 386.04C595.138 384.227 598.472 383.32 602.258 383.32ZM602.178 389.08C598.818 389.08 596.152 390.173 594.178 392.36C592.258 394.493 591.112 397.48 590.738 401.32H612.578C612.578 398.867 612.205 396.733 611.458 394.92C610.712 393.107 609.565 391.693 608.018 390.68C606.525 389.613 604.578 389.08 602.178 389.08ZM650.855 383.32C651.655 383.32 652.508 383.373 653.415 383.48C654.375 383.533 655.201 383.64 655.895 383.8L655.015 390.28C654.321 390.12 653.548 389.987 652.695 389.88C651.895 389.773 651.121 389.72 650.375 389.72C648.721 389.72 647.148 390.067 645.655 390.76C644.161 391.453 642.828 392.44 641.655 393.72C640.481 394.947 639.548 396.44 638.855 398.2C638.215 399.96 637.895 401.933 637.895 404.12V427H630.855V384.12H636.615L637.415 391.96H637.735C638.641 390.36 639.735 388.92 641.015 387.64C642.295 386.307 643.761 385.267 645.415 384.52C647.068 383.72 648.881 383.32 650.855 383.32ZM704.443 389.56H693.643V427H686.603V389.56H679.083V386.28L686.603 383.88V381.4C686.603 377.72 687.136 374.733 688.203 372.44C689.323 370.147 690.923 368.467 693.003 367.4C695.083 366.333 697.589 365.8 700.523 365.8C702.229 365.8 703.776 365.96 705.163 366.28C706.603 366.547 707.829 366.867 708.843 367.24L707.003 372.76C706.149 372.493 705.163 372.227 704.043 371.96C702.923 371.693 701.776 371.56 700.603 371.56C698.256 371.56 696.496 372.36 695.323 373.96C694.203 375.507 693.643 377.96 693.643 381.32V384.12H704.443V389.56ZM749.463 405.48C749.463 409.053 748.983 412.227 748.023 415C747.116 417.72 745.783 420.04 744.023 421.96C742.316 423.88 740.209 425.347 737.703 426.36C735.249 427.32 732.503 427.8 729.463 427.8C726.636 427.8 724.023 427.32 721.623 426.36C719.223 425.347 717.143 423.88 715.383 421.96C713.623 420.04 712.236 417.72 711.223 415C710.263 412.227 709.783 409.053 709.783 405.48C709.783 400.733 710.583 396.733 712.183 393.48C713.783 390.173 716.076 387.667 719.063 385.96C722.049 384.2 725.596 383.32 729.703 383.32C733.596 383.32 737.009 384.2 739.943 385.96C742.929 387.667 745.249 390.173 746.903 393.48C748.609 396.733 749.463 400.733 749.463 405.48ZM717.063 405.48C717.063 408.84 717.489 411.773 718.343 414.28C719.249 416.733 720.636 418.627 722.503 419.96C724.369 421.293 726.743 421.96 729.623 421.96C732.503 421.96 734.876 421.293 736.743 419.96C738.609 418.627 739.969 416.733 740.823 414.28C741.729 411.773 742.183 408.84 742.183 405.48C742.183 402.067 741.729 399.16 740.823 396.76C739.916 394.36 738.529 392.52 736.663 391.24C734.849 389.907 732.476 389.24 729.543 389.24C725.169 389.24 721.996 390.68 720.023 393.56C718.049 396.44 717.063 400.413 717.063 405.48ZM780.62 383.32C781.42 383.32 782.274 383.373 783.18 383.48C784.14 383.533 784.967 383.64 785.66 383.8L784.78 390.28C784.087 390.12 783.314 389.987 782.46 389.88C781.66 389.773 780.887 389.72 780.14 389.72C778.487 389.72 776.914 390.067 775.42 390.76C773.927 391.453 772.594 392.44 771.42 393.72C770.247 394.947 769.314 396.44 768.62 398.2C767.98 399.96 767.66 401.933 767.66 404.12V427H760.62V384.12H766.38L767.18 391.96H767.5C768.407 390.36 769.5 388.92 770.78 387.64C772.06 386.307 773.527 385.267 775.18 384.52C776.834 383.72 778.647 383.32 780.62 383.32ZM851.728 405.48C851.728 409.053 851.248 412.227 850.288 415C849.382 417.72 848.048 420.04 846.288 421.96C844.582 423.88 842.475 425.347 839.968 426.36C837.515 427.32 834.768 427.8 831.728 427.8C828.902 427.8 826.288 427.32 823.888 426.36C821.488 425.347 819.408 423.88 817.648 421.96C815.888 420.04 814.502 417.72 813.488 415C812.528 412.227 812.048 409.053 812.048 405.48C812.048 400.733 812.848 396.733 814.448 393.48C816.048 390.173 818.342 387.667 821.328 385.96C824.315 384.2 827.862 383.32 831.968 383.32C835.862 383.32 839.275 384.2 842.208 385.96C845.195 387.667 847.515 390.173 849.168 393.48C850.875 396.733 851.728 400.733 851.728 405.48ZM819.328 405.48C819.328 408.84 819.755 411.773 820.608 414.28C821.515 416.733 822.902 418.627 824.768 419.96C826.635 421.293 829.008 421.96 831.888 421.96C834.768 421.96 837.142 421.293 839.008 419.96C840.875 418.627 842.235 416.733 843.088 414.28C843.995 411.773 844.448 408.84 844.448 405.48C844.448 402.067 843.995 399.16 843.088 396.76C842.182 394.36 840.795 392.52 838.928 391.24C837.115 389.907 834.742 389.24 831.808 389.24C827.435 389.24 824.262 390.68 822.288 393.56C820.315 396.44 819.328 400.413 819.328 405.48ZM898.726 384.12V427H892.966L891.926 421.32H891.606C890.699 422.813 889.526 424.04 888.086 425C886.646 425.96 885.073 426.653 883.366 427.08C881.659 427.56 879.873 427.8 878.006 427.8C874.593 427.8 871.713 427.267 869.366 426.2C867.073 425.08 865.339 423.373 864.166 421.08C862.993 418.787 862.406 415.827 862.406 412.2V384.12H869.526V411.72C869.526 415.133 870.299 417.693 871.846 419.4C873.393 421.107 875.793 421.96 879.046 421.96C882.246 421.96 884.753 421.373 886.566 420.2C888.433 418.973 889.739 417.213 890.486 414.92C891.286 412.573 891.686 409.747 891.686 406.44V384.12H898.726ZM926.659 422.04C927.726 422.04 928.819 421.96 929.939 421.8C931.059 421.587 931.966 421.373 932.659 421.16V426.52C931.912 426.893 930.846 427.187 929.459 427.4C928.072 427.667 926.739 427.8 925.459 427.8C923.219 427.8 921.139 427.427 919.219 426.68C917.352 425.88 915.832 424.52 914.659 422.6C913.486 420.68 912.899 417.987 912.899 414.52V389.56H906.819V386.2L912.979 383.4L915.779 374.28H919.939V384.12H932.339V389.56H919.939V414.36C919.939 416.973 920.552 418.92 921.779 420.2C923.059 421.427 924.686 422.04 926.659 422.04ZM948.285 381C948.285 382.813 948.232 384.52 948.125 386.12C948.072 387.667 947.992 388.893 947.885 389.8H948.285C949.512 387.987 951.192 386.467 953.325 385.24C955.459 384.013 958.205 383.4 961.565 383.4C966.899 383.4 971.165 385.267 974.365 389C977.619 392.68 979.245 398.2 979.245 405.56C979.245 410.467 978.499 414.573 977.005 417.88C975.565 421.187 973.512 423.667 970.845 425.32C968.179 426.973 965.085 427.8 961.565 427.8C958.205 427.8 955.459 427.187 953.325 425.96C951.192 424.733 949.512 423.267 948.285 421.56H947.725L946.285 427H941.245V366.2H948.285V381ZM960.365 389.24C957.325 389.24 954.925 389.827 953.165 391C951.405 392.12 950.152 393.88 949.405 396.28C948.659 398.627 948.285 401.64 948.285 405.32V405.64C948.285 410.92 949.139 414.973 950.845 417.8C952.605 420.573 955.832 421.96 960.525 421.96C964.365 421.96 967.219 420.547 969.085 417.72C971.005 414.893 971.965 410.813 971.965 405.48C971.965 400.093 971.005 396.04 969.085 393.32C967.219 390.6 964.312 389.24 960.365 389.24ZM1010.46 383.32C1011.26 383.32 1012.12 383.373 1013.02 383.48C1013.98 383.533 1014.81 383.64 1015.5 383.8L1014.62 390.28C1013.93 390.12 1013.16 389.987 1012.3 389.88C1011.5 389.773 1010.73 389.72 1009.98 389.72C1008.33 389.72 1006.76 390.067 1005.26 390.76C1003.77 391.453 1002.44 392.44 1001.26 393.72C1000.09 394.947 999.157 396.44 998.464 398.2C997.824 399.96 997.504 401.933 997.504 404.12V427H990.464V384.12H996.224L997.024 391.96H997.344C998.251 390.36 999.344 388.92 1000.62 387.64C1001.9 386.307 1003.37 385.267 1005.02 384.52C1006.68 383.72 1008.49 383.32 1010.46 383.32ZM1038.51 383.32C1042.19 383.32 1045.34 384.12 1047.95 385.72C1050.62 387.32 1052.64 389.587 1054.03 392.52C1055.47 395.4 1056.19 398.787 1056.19 402.68V406.92H1026.83C1026.94 411.773 1028.16 415.48 1030.51 418.04C1032.91 420.547 1036.24 421.8 1040.51 421.8C1043.23 421.8 1045.63 421.56 1047.71 421.08C1049.84 420.547 1052.03 419.8 1054.27 418.84V425C1052.08 425.96 1049.92 426.653 1047.79 427.08C1045.66 427.56 1043.12 427.8 1040.19 427.8C1036.14 427.8 1032.54 426.973 1029.39 425.32C1026.3 423.667 1023.87 421.213 1022.11 417.96C1020.4 414.653 1019.55 410.627 1019.55 405.88C1019.55 401.187 1020.32 397.16 1021.87 393.8C1023.47 390.44 1025.68 387.853 1028.51 386.04C1031.39 384.227 1034.72 383.32 1038.51 383.32ZM1038.43 389.08C1035.07 389.08 1032.4 390.173 1030.43 392.36C1028.51 394.493 1027.36 397.48 1026.99 401.32H1048.83C1048.83 398.867 1048.46 396.733 1047.71 394.92C1046.96 393.107 1045.82 391.693 1044.27 390.68C1042.78 389.613 1040.83 389.08 1038.43 389.08ZM1083.34 383.4C1088.57 383.4 1092.44 384.547 1094.94 386.84C1097.45 389.133 1098.7 392.787 1098.7 397.8V427H1093.58L1092.22 420.92H1091.9C1090.68 422.467 1089.4 423.773 1088.06 424.84C1086.78 425.853 1085.29 426.6 1083.58 427.08C1081.93 427.56 1079.9 427.8 1077.5 427.8C1074.94 427.8 1072.62 427.347 1070.54 426.44C1068.52 425.533 1066.92 424.147 1065.74 422.28C1064.57 420.36 1063.98 417.96 1063.98 415.08C1063.98 410.813 1065.66 407.533 1069.02 405.24C1072.38 402.893 1077.56 401.613 1084.54 401.4L1091.82 401.16V398.6C1091.82 395.027 1091.05 392.547 1089.5 391.16C1087.96 389.773 1085.77 389.08 1082.94 389.08C1080.7 389.08 1078.57 389.427 1076.54 390.12C1074.52 390.76 1072.62 391.507 1070.86 392.36L1068.7 387.08C1070.57 386.067 1072.78 385.213 1075.34 384.52C1077.9 383.773 1080.57 383.4 1083.34 383.4ZM1085.42 406.28C1080.09 406.493 1076.38 407.347 1074.3 408.84C1072.28 410.333 1071.26 412.44 1071.26 415.16C1071.26 417.56 1071.98 419.32 1073.42 420.44C1074.92 421.56 1076.81 422.12 1079.1 422.12C1082.73 422.12 1085.74 421.133 1088.14 419.16C1090.54 417.133 1091.74 414.04 1091.74 409.88V406.04L1085.42 406.28ZM1118.91 397.96C1118.91 398.813 1118.86 399.933 1118.75 401.32C1118.7 402.707 1118.64 403.907 1118.59 404.92H1118.91C1119.23 404.493 1119.71 403.88 1120.35 403.08C1120.99 402.28 1121.63 401.48 1122.27 400.68C1122.96 399.827 1123.55 399.133 1124.03 398.6L1137.71 384.12H1145.95L1128.59 402.44L1147.15 427H1138.67L1123.79 407L1118.91 411.24V427H1111.95V366.2H1118.91V397.96ZM1182.6 415.16C1182.6 417.933 1181.91 420.253 1180.52 422.12C1179.14 423.987 1177.16 425.4 1174.6 426.36C1172.04 427.32 1169 427.8 1165.48 427.8C1162.5 427.8 1159.91 427.56 1157.72 427.08C1155.59 426.6 1153.7 425.933 1152.04 425.08V418.68C1153.75 419.533 1155.8 420.333 1158.2 421.08C1160.66 421.773 1163.14 422.12 1165.64 422.12C1169.22 422.12 1171.8 421.56 1173.4 420.44C1175 419.267 1175.8 417.72 1175.8 415.8C1175.8 414.733 1175.51 413.773 1174.92 412.92C1174.34 412.067 1173.27 411.213 1171.72 410.36C1170.23 409.507 1168.07 408.547 1165.24 407.48C1162.47 406.413 1160.1 405.347 1158.12 404.28C1156.15 403.213 1154.63 401.933 1153.56 400.44C1152.5 398.947 1151.96 397.027 1151.96 394.68C1151.96 391.053 1153.43 388.253 1156.36 386.28C1159.35 384.307 1163.24 383.32 1168.04 383.32C1170.66 383.32 1173.08 383.587 1175.32 384.12C1177.62 384.6 1179.75 385.293 1181.72 386.2L1179.32 391.8C1178.15 391.267 1176.9 390.813 1175.56 390.44C1174.28 390.013 1172.98 389.693 1171.64 389.48C1170.31 389.213 1168.95 389.08 1167.56 389.08C1164.68 389.08 1162.47 389.56 1160.92 390.52C1159.43 391.427 1158.68 392.68 1158.68 394.28C1158.68 395.453 1159.03 396.467 1159.72 397.32C1160.42 398.12 1161.56 398.92 1163.16 399.72C1164.82 400.467 1167 401.373 1169.72 402.44C1172.44 403.453 1174.76 404.493 1176.68 405.56C1178.6 406.627 1180.07 407.933 1181.08 409.48C1182.1 410.973 1182.6 412.867 1182.6 415.16Z" fill="black"/>
<path d="M404.25 167.75H475V260.25C465.667 263.417 455.917 265.917 445.75 267.75C435.75 269.583 424.333 270.5 411.5 270.5C393.833 270.5 378.75 267 366.25 260C353.917 253 344.5 242.667 338 229C331.667 215.333 328.5 198.5 328.5 178.5C328.5 159.833 332.083 143.667 339.25 130C346.583 116.333 357.167 105.75 371 98.25C384.833 90.75 401.75 87 421.75 87C431.25 87 440.583 88 449.75 90C458.917 92 467.25 94.6667 474.75 98L462.25 128.25C456.75 125.417 450.5 123.083 443.5 121.25C436.5 119.417 429.167 118.5 421.5 118.5C410.5 118.5 400.917 121 392.75 126C384.75 131 378.5 138.083 374 147.25C369.667 156.25 367.5 166.917 367.5 179.25C367.5 190.917 369.083 201.25 372.25 210.25C375.417 219.25 380.417 226.333 387.25 231.5C394.083 236.5 403 239 414 239C417.667 239 420.833 238.917 423.5 238.75C426.333 238.417 428.917 238.083 431.25 237.75C433.583 237.25 435.833 236.833 438 236.5V199.25H404.25V167.75ZM570.408 128.75C588.742 128.75 602.742 132.75 612.408 140.75C622.242 148.583 627.158 160.667 627.158 177V268H601.158L593.908 249.5H592.908C589.075 254.333 585.075 258.333 580.908 261.5C576.908 264.667 572.242 266.917 566.908 268.25C561.742 269.75 555.325 270.5 547.658 270.5C539.658 270.5 532.408 269 525.908 266C519.575 262.833 514.575 258.083 510.908 251.75C507.242 245.25 505.408 237.083 505.408 227.25C505.408 212.75 510.492 202.083 520.658 195.25C530.825 188.25 546.075 184.417 566.408 183.75L590.158 183V177C590.158 169.833 588.242 164.583 584.408 161.25C580.742 157.917 575.575 156.25 568.908 156.25C562.242 156.25 555.742 157.25 549.408 159.25C543.075 161.083 536.742 163.417 530.408 166.25L518.158 141C525.492 137.167 533.575 134.167 542.408 132C551.408 129.833 560.742 128.75 570.408 128.75ZM575.658 205.25C563.658 205.583 555.325 207.75 550.658 211.75C545.992 215.75 543.658 221 543.658 227.5C543.658 233.167 545.325 237.25 548.658 239.75C551.992 242.083 556.325 243.25 561.658 243.25C569.658 243.25 576.408 240.917 581.908 236.25C587.408 231.417 590.158 224.667 590.158 216V204.75L575.658 205.25ZM702.537 268H665.287V78H702.537V268ZM797.459 128.75C815.792 128.75 829.792 132.75 839.459 140.75C849.292 148.583 854.209 160.667 854.209 177V268H828.209L820.959 249.5H819.959C816.126 254.333 812.126 258.333 807.959 261.5C803.959 264.667 799.292 266.917 793.959 268.25C788.792 269.75 782.376 270.5 774.709 270.5C766.709 270.5 759.459 269 752.959 266C746.626 262.833 741.626 258.083 737.959 251.75C734.292 245.25 732.459 237.083 732.459 227.25C732.459 212.75 737.542 202.083 747.709 195.25C757.876 188.25 773.126 184.417 793.459 183.75L817.209 183V177C817.209 169.833 815.292 164.583 811.459 161.25C807.792 157.917 802.626 156.25 795.959 156.25C789.292 156.25 782.792 157.25 776.459 159.25C770.126 161.083 763.792 163.417 757.459 166.25L745.209 141C752.542 137.167 760.626 134.167 769.459 132C778.459 129.833 787.792 128.75 797.459 128.75ZM802.709 205.25C790.709 205.583 782.376 207.75 777.709 211.75C773.042 215.75 770.709 221 770.709 227.5C770.709 233.167 772.376 237.25 775.709 239.75C779.042 242.083 783.376 243.25 788.709 243.25C796.709 243.25 803.459 240.917 808.959 236.25C814.459 231.417 817.209 224.667 817.209 216V204.75L802.709 205.25ZM936.588 129C944.921 129 952.421 130.667 959.088 134C965.755 137.333 971.421 142.333 976.088 149H977.088L980.088 131.5H1011.59V268.25C1011.59 281.25 1009 292.167 1003.84 301C998.838 309.833 991.255 316.5 981.088 321C970.921 325.667 958.338 328 943.338 328C933.671 328 924.671 327.417 916.338 326.25C908.171 325.083 900.171 323 892.338 320V290.25C898.005 292.583 903.671 294.5 909.338 296C915.171 297.667 921.088 298.833 927.088 299.5C933.255 300.333 939.421 300.75 945.588 300.75C955.255 300.75 962.421 298.167 967.088 293C971.921 287.833 974.338 280.083 974.338 269.75V267C974.338 264.167 974.421 261.25 974.588 258.25C974.921 255.25 975.171 252.583 975.338 250.25H974.338C969.671 257.417 964.088 262.583 957.588 265.75C951.088 268.917 943.755 270.5 935.588 270.5C919.421 270.5 906.755 264.333 897.588 252C888.588 239.5 884.088 222.167 884.088 200C884.088 185 886.171 172.25 890.338 161.75C894.505 151.083 900.505 143 908.338 137.5C916.338 131.833 925.755 129 936.588 129ZM948.338 159.25C942.505 159.25 937.588 160.833 933.588 164C929.755 167 926.838 171.583 924.838 177.75C923.005 183.75 922.088 191.333 922.088 200.5C922.088 214.167 924.255 224.417 928.588 231.25C932.921 237.917 939.671 241.25 948.838 241.25C953.671 241.25 957.838 240.667 961.338 239.5C964.838 238.167 967.671 236.083 969.838 233.25C972.171 230.25 973.921 226.417 975.088 221.75C976.255 217.083 976.838 211.417 976.838 204.75V200.25C976.838 190.417 975.838 182.5 973.838 176.5C971.838 170.5 968.755 166.167 964.588 163.5C960.421 160.667 955.005 159.25 948.338 159.25ZM1174.54 199.5C1174.54 210.833 1172.96 220.917 1169.79 229.75C1166.79 238.583 1162.37 246.083 1156.54 252.25C1150.87 258.25 1143.96 262.833 1135.79 266C1127.62 269 1118.37 270.5 1108.04 270.5C1098.54 270.5 1089.71 269 1081.54 266C1073.54 262.833 1066.62 258.25 1060.79 252.25C1054.96 246.083 1050.37 238.583 1047.04 229.75C1043.87 220.917 1042.29 210.833 1042.29 199.5C1042.29 184.333 1044.96 171.583 1050.29 161.25C1055.62 150.75 1063.29 142.75 1073.29 137.25C1083.29 131.75 1095.12 129 1108.79 129C1121.62 129 1132.96 131.75 1142.79 137.25C1152.62 142.75 1160.37 150.75 1166.04 161.25C1171.71 171.583 1174.54 184.333 1174.54 199.5ZM1080.29 199.5C1080.29 208.5 1081.21 216.083 1083.04 222.25C1085.04 228.25 1088.12 232.833 1092.29 236C1096.46 239 1101.87 240.5 1108.54 240.5C1115.21 240.5 1120.54 239 1124.54 236C1128.71 232.833 1131.71 228.25 1133.54 222.25C1135.54 216.083 1136.54 208.5 1136.54 199.5C1136.54 190.5 1135.54 183 1133.54 177C1131.71 171 1128.71 166.5 1124.54 163.5C1120.37 160.5 1114.96 159 1108.29 159C1098.46 159 1091.29 162.417 1086.79 169.25C1082.46 175.917 1080.29 186 1080.29 199.5Z" fill="black"/>
<path d="M247.908 174.749C242.062 174.749 236.602 176.374 231.904 179.156L212.753 160.005C218.389 154.301 221.879 146.475 221.879 137.843C221.879 120.445 207.725 106.289 190.325 106.289C184.225 106.289 178.545 108.056 173.713 111.066L154.574 91.9266C159.866 86.2823 163.136 78.7157 163.136 70.3842C163.136 52.9857 148.982 38.8301 131.582 38.8301C114.184 38.8301 100.028 52.9844 100.028 70.3842C100.028 78.4679 103.109 85.8269 108.124 91.4145L88.8396 110.699C84.1387 107.917 78.6813 106.292 72.8353 106.292C55.4369 106.292 41.2813 120.446 41.2813 137.846C41.2813 155.244 55.4356 169.4 72.8353 169.4C90.2338 169.4 104.389 155.246 104.389 137.846C104.389 129.508 101.112 121.933 95.8117 116.285L114.948 97.1493C119.784 100.165 125.473 101.941 131.583 101.941C137.439 101.941 142.904 100.311 147.608 97.5227L166.885 116.799C161.858 122.391 158.771 129.756 158.771 137.848C158.771 146.186 162.045 153.754 167.345 159.402L147.586 179.161C142.885 176.379 137.428 174.754 131.582 174.754C114.184 174.754 100.028 188.908 100.028 206.308C100.028 212.104 101.627 217.523 104.364 222.196L84.093 242.467C79.3921 239.686 73.9347 238.06 68.0887 238.06C50.6903 238.06 36.5347 252.214 36.5347 269.614C36.5347 287.013 50.689 301.168 68.0887 301.168C85.4872 301.168 99.6428 287.014 99.6428 269.614C99.6428 261.272 96.3656 253.701 91.0651 248.053L109.924 229.195C115.581 234.553 123.194 237.862 131.582 237.862C139.544 237.862 146.805 234.875 152.362 229.991L170.421 248.05C165.117 253.697 161.843 261.273 161.843 269.611C161.843 287.009 175.997 301.165 193.397 301.165C210.795 301.165 224.951 287.01 224.951 269.611C224.951 252.212 210.797 238.057 193.397 238.057C187.551 238.057 182.092 239.682 177.393 242.464L158.164 223.235C161.296 218.336 163.138 212.538 163.138 206.304C163.138 197.963 159.861 190.391 154.56 184.744L174.319 164.988C179.02 167.773 184.481 169.399 190.33 169.399C195.876 169.399 201.086 167.948 205.62 165.423L224.94 184.742C219.639 190.39 216.362 197.962 216.362 206.303C216.362 223.701 230.516 237.857 247.916 237.857C265.314 237.857 279.47 223.703 279.47 206.303C279.467 188.905 265.306 174.749 247.907 174.749L247.908 174.749ZM72.8324 157.56C61.9603 157.56 53.1183 148.718 53.1183 137.846C53.1183 126.974 61.9603 118.132 72.8324 118.132C83.7044 118.132 92.5464 126.974 92.5464 137.846C92.5447 148.718 83.7011 157.56 72.8324 157.56ZM111.863 70.3884C111.863 59.5163 120.704 50.6744 131.577 50.6744C142.449 50.6744 151.291 59.5163 151.291 70.3884C151.291 81.2605 142.449 90.1024 131.577 90.1024C120.704 90.1008 111.863 81.2605 111.863 70.3884V70.3884ZM68.0883 289.323C57.2162 289.323 48.3743 280.481 48.3743 269.609C48.3743 258.737 57.2162 249.895 68.0883 249.895C78.9604 249.895 87.8024 258.737 87.8024 269.609C87.8024 280.481 78.9604 289.323 68.0883 289.323ZM131.576 226.017C120.704 226.017 111.862 217.175 111.862 206.303C111.862 195.431 120.704 186.589 131.576 186.589C142.448 186.589 151.29 195.431 151.29 206.303C151.288 217.176 142.448 226.017 131.576 226.017ZM213.103 269.605C213.103 280.477 204.261 289.319 193.389 289.319C182.517 289.319 173.675 280.477 173.675 269.605C173.675 258.733 182.517 249.891 193.389 249.891C204.261 249.892 213.103 258.733 213.103 269.605ZM170.606 137.843C170.606 126.97 179.448 118.129 190.32 118.129C201.192 118.129 210.034 126.97 210.034 137.843C210.034 148.715 201.192 157.557 190.32 157.557C179.448 157.557 170.606 148.715 170.606 137.843ZM247.904 226.017C237.032 226.017 228.19 217.175 228.19 206.303C228.19 195.431 237.032 186.589 247.904 186.589C258.776 186.589 267.618 195.431 267.618 206.303C267.618 217.176 258.776 226.017 247.904 226.017Z" fill="black"/>
</svg>
